<?xml version="1.0" encoding="utf-8"?>
<!-- Generator: Adobe Illustrator 16.0.0, SVG Export Plug-In . SVG Version: 6.00 Build 0)  -->
<!DOCTYPE svg PUBLIC "-//W3C//DTD SVG 1.1//EN" "http://www.w3.org/Graphics/SVG/1.1/DTD/svg11.dtd">
<svg version="1.1" id="Calque_1" xmlns="http://www.w3.org/2000/svg" xmlns:xlink="http://www.w3.org/1999/xlink" x="0px" y="0px"
	 width="7.991px" height="6.981px" viewBox="3.009 4.501 7.991 6.981" enable-background="new 3.009 4.501 7.991 6.981"
	 xml:space="preserve">
<path d="M11,8c0,0.275-0.225,0.5-0.5,0.5H4.707l2.146,2.146c0.195,0.195,0.195,0.512,0,0.707s-0.512,0.195-0.707,0l-3-3
	C2.951,8.158,2.95,7.842,3.145,7.646c0,0,0,0,0.001-0.001l3-3c0.195-0.195,0.512-0.195,0.707,0s0.195,0.513,0,0.708L4.707,7.5H10.5
	C10.775,7.5,11,7.723,11,8z"/>
</svg>
