<?xml version="1.0" encoding="utf-8"?>
<!-- Generator: Adobe Illustrator 16.0.0, SVG Export Plug-In . SVG Version: 6.00 Build 0)  -->
<!DOCTYPE svg PUBLIC "-//W3C//DTD SVG 1.1//EN" "http://www.w3.org/Graphics/SVG/1.1/DTD/svg11.dtd">
<svg version="1.1" id="Calque_1" xmlns="http://www.w3.org/2000/svg" xmlns:xlink="http://www.w3.org/1999/xlink" x="0px" y="0px"
	 width="16px" height="16px" viewBox="0 0 16 16" enable-background="new 0 0 16 16" xml:space="preserve">
<path fill="#FFFFFF" d="M16,8c0,4.418-3.582,8-8,8c-4.418,0-8-3.582-8-8c0-4.418,3.582-8,8-8C12.418,0,16,3.582,16,8z M12.029,4.97
	c-0.293-0.292-0.768-0.291-1.061,0.002c-0.006,0.007-0.012,0.014-0.019,0.021L7.477,9.417L5.384,7.323
	C5.081,7.041,4.606,7.058,4.324,7.36c-0.269,0.288-0.269,0.734,0,1.022L6.97,11.03c0.293,0.292,0.768,0.292,1.061-0.001
	c0.006-0.006,0.012-0.013,0.018-0.02l3.992-4.99c0.283-0.294,0.279-0.761-0.01-1.05H12.029z"/>
</svg>
