<?xml version="1.0" encoding="utf-8"?>
<!-- Generator: Adobe Illustrator 16.0.0, SVG Export Plug-In . SVG Version: 6.00 Build 0)  -->
<!DOCTYPE svg PUBLIC "-//W3C//DTD SVG 1.1//EN" "http://www.w3.org/Graphics/SVG/1.1/DTD/svg11.dtd">
<svg version="1.1" id="Calque_1" xmlns="http://www.w3.org/2000/svg" xmlns:xlink="http://www.w3.org/1999/xlink" x="0px" y="0px"
	 width="595.279px" height="476.195px" viewBox="0 182.853 595.279 476.195" enable-background="new 0 182.853 595.279 476.195"
	 xml:space="preserve">
<path fill="#FFFFFF" d="M453.901,361.417H312.522v52.087c0,36.926-30.043,66.969-66.969,66.969c-36.927,0-66.97-30.043-66.97-66.969
	V300.401l-60.364,36.275c-17.951,10.696-28.928,30.136-28.928,50.971v43.995l-74.41,42.973c-14.23,8.185-19.16,26.415-10.883,40.646
	l74.41,128.915c8.187,14.231,26.416,19.068,40.646,10.883l96.175-55.527h127.056c32.833,0,59.527-26.694,59.527-59.528h14.882
	c16.464,0,29.766-13.301,29.766-29.764V450.71h7.439c12.371,0,22.323-9.952,22.323-22.323V383.74
	C476.224,371.369,466.272,361.417,453.901,361.417z M591.281,326.63l-74.41-128.916c-8.185-14.231-26.415-19.067-40.646-10.882
	l-96.175,55.528H284.99c-11.161,0-22.044,3.163-31.531,9.022L222.3,270.823c-8.742,5.395-13.951,14.975-13.951,25.207v117.475
	c0,20.556,16.648,37.205,37.205,37.205c20.556,0,37.204-16.649,37.204-37.205v-81.851h171.144c28.741,0,52.087,23.346,52.087,52.087
	v26.509l74.41-42.972C594.63,358.999,599.466,340.861,591.281,326.63z"/>
</svg>
