<?xml version="1.0" encoding="utf-8"?>
<!-- Generator: Adobe Illustrator 16.0.0, SVG Export Plug-In . SVG Version: 6.00 Build 0)  -->
<!DOCTYPE svg PUBLIC "-//W3C//DTD SVG 1.1//EN" "http://www.w3.org/Graphics/SVG/1.1/DTD/svg11.dtd">
<svg version="1.1" id="Calque_1" xmlns="http://www.w3.org/2000/svg" xmlns:xlink="http://www.w3.org/1999/xlink" x="0px" y="0px"
	 width="22px" height="21px" viewBox="0 -0.135 22 21" enable-background="new 0 -0.135 22 21" xml:space="preserve">
<path d="M11,3.713L10.015,2.68C7.7,0.259,3.457,1.094,1.925,4.139c-0.719,1.433-0.881,3.5,0.432,6.139
	c1.265,2.541,3.896,5.585,8.643,8.899c4.747-3.313,7.377-6.357,8.645-8.898c1.313-2.641,1.151-4.706,0.431-6.139
	c-1.53-3.045-5.773-3.882-8.089-1.46L11,3.713z M11,20.865C-10.083,6.68,4.508-4.391,10.758,1.466
	C10.84,1.542,10.921,1.622,11,1.704c0.079-0.083,0.159-0.162,0.242-0.237C17.491-4.394,32.083,6.679,11,20.865z"/>
</svg>
