<?xml version="1.0" encoding="utf-8"?>
<!-- Generator: Adobe Illustrator 16.0.0, SVG Export Plug-In . SVG Version: 6.00 Build 0)  -->
<!DOCTYPE svg PUBLIC "-//W3C//DTD SVG 1.1//EN" "http://www.w3.org/Graphics/SVG/1.1/DTD/svg11.dtd">
<svg version="1.1" id="Calque_1" xmlns="http://www.w3.org/2000/svg" xmlns:xlink="http://www.w3.org/1999/xlink" x="0px" y="0px"
	 width="17px" height="12.143px" viewBox="-0.5 1.429 17 12.143" enable-background="new -0.5 1.429 17 12.143"
	 xml:space="preserve">
<path fill="#7E7E7E" d="M4.357,12.358c0-0.338,0.272-0.608,0.607-0.608h10.928c0.338,0,0.608,0.271,0.608,0.608
	c0,0.335-0.271,0.605-0.608,0.605H4.964C4.629,12.964,4.357,12.693,4.357,12.358z M4.357,7.5c0-0.335,0.272-0.607,0.607-0.607
	h10.928c0.338,0,0.608,0.272,0.608,0.607s-0.271,0.607-0.608,0.607H4.964C4.629,8.107,4.357,7.835,4.357,7.5z M4.357,2.643
	c0-0.336,0.272-0.607,0.607-0.607h10.928c0.338,0,0.608,0.271,0.608,0.607c0,0.335-0.271,0.607-0.608,0.607H4.964
	C4.629,3.25,4.357,2.978,4.357,2.643z M0.714,3.857c0.671,0,1.215-0.543,1.215-1.214S1.385,1.429,0.714,1.429S-0.5,1.972-0.5,2.643
	S0.043,3.857,0.714,3.857z M0.714,8.714c0.671,0,1.215-0.543,1.215-1.214S1.385,6.286,0.714,6.286S-0.5,6.829-0.5,7.5
	S0.043,8.714,0.714,8.714z M0.714,13.572c0.671,0,1.215-0.544,1.215-1.214c0-0.673-0.544-1.217-1.215-1.217S-0.5,11.686-0.5,12.358
	C-0.5,13.028,0.043,13.572,0.714,13.572z"/>
</svg>
