<?xml version="1.0" encoding="utf-8"?>
<!-- Generator: Adobe Illustrator 16.0.0, SVG Export Plug-In . SVG Version: 6.00 Build 0)  -->
<!DOCTYPE svg PUBLIC "-//W3C//DTD SVG 1.1//EN" "http://www.w3.org/Graphics/SVG/1.1/DTD/svg11.dtd">
<svg version="1.1" id="Calque_1" xmlns="http://www.w3.org/2000/svg" xmlns:xlink="http://www.w3.org/1999/xlink" x="0px" y="0px"
	 width="17px" height="12.143px" viewBox="0 0 17 12.143" enable-background="new 0 0 17 12.143" xml:space="preserve">
<path fill="#9356DC" d="M4.857,10.929c0-0.338,0.272-0.606,0.607-0.606h10.929c0.338,0,0.607,0.271,0.607,0.606
	c0,0.335-0.271,0.605-0.607,0.605H5.464C5.129,11.535,4.857,11.264,4.857,10.929z M4.857,6.072c0-0.335,0.272-0.607,0.607-0.607
	h10.929C16.73,5.464,17,5.737,17,6.072s-0.271,0.605-0.607,0.605H5.464C5.129,6.678,4.857,6.406,4.857,6.072z M4.857,1.214
	c0-0.336,0.272-0.605,0.607-0.605h10.929C16.73,0.609,17,0.879,17,1.214s-0.271,0.607-0.607,0.607H5.464
	C5.129,1.822,4.857,1.549,4.857,1.214z M1.214,2.428c0.671,0,1.215-0.543,1.215-1.214S1.885,0,1.214,0S0,0.543,0,1.214
	S0.543,2.428,1.214,2.428z M1.214,7.285c0.671,0,1.215-0.543,1.215-1.214S1.885,4.858,1.214,4.858S0,5.401,0,6.072
	S0.543,7.285,1.214,7.285z M1.214,12.143c0.671,0,1.215-0.544,1.215-1.214c0-0.673-0.544-1.217-1.215-1.217S0,10.257,0,10.929
	C0,11.599,0.543,12.143,1.214,12.143z"/>
</svg>
