<?xml version="1.0" encoding="utf-8"?>
<!-- Generator: Adobe Illustrator 16.0.0, SVG Export Plug-In . SVG Version: 6.00 Build 0)  -->
<!DOCTYPE svg PUBLIC "-//W3C//DTD SVG 1.1//EN" "http://www.w3.org/Graphics/SVG/1.1/DTD/svg11.dtd">
<svg version="1.1" id="Calque_1" xmlns="http://www.w3.org/2000/svg" xmlns:xlink="http://www.w3.org/1999/xlink" x="0px" y="0px"
	 width="13px" height="22px" viewBox="0 0 13 22" enable-background="new 0 0 13 22" xml:space="preserve">
<path fill="#9356DC" d="M11.299,0H1.701C0.765,0,0,0.765,0,1.701v18.597c0,0.936,0.765,1.701,1.701,1.701h9.598
	c0.936,0,1.701-0.766,1.701-1.701V1.701C13,0.765,12.234,0,11.299,0z M6.5,20.54c-0.576,0-1.043-0.465-1.043-1.041
	c0-0.574,0.467-1.041,1.043-1.041s1.041,0.467,1.041,1.041C7.541,20.075,7.074,20.54,6.5,20.54z M11.809,16.999H1.191V1.553h10.615
	v15.446H11.809z"/>
</svg>
