<?xml version="1.0" encoding="utf-8"?>
<!-- Generator: Adobe Illustrator 16.0.0, SVG Export Plug-In . SVG Version: 6.00 Build 0)  -->
<!DOCTYPE svg PUBLIC "-//W3C//DTD SVG 1.1//EN" "http://www.w3.org/Graphics/SVG/1.1/DTD/svg11.dtd">
<svg version="1.1" id="Calque_1" xmlns="http://www.w3.org/2000/svg" xmlns:xlink="http://www.w3.org/1999/xlink" x="0px" y="0px"
	 width="13px" height="22px" viewBox="5 1 13 22" enable-background="new 5 1 13 22" xml:space="preserve">
<path fill="#7E7E7E" d="M16.299,1H6.701C5.765,1,5,1.765,5,2.701v18.598C5,22.234,5.765,23,6.701,23h9.598
	C17.234,23,18,22.234,18,21.299V2.701C18,1.765,17.234,1,16.299,1z M11.5,21.541c-0.575,0-1.042-0.466-1.042-1.041
	s0.466-1.041,1.042-1.041s1.041,0.466,1.041,1.041S12.075,21.541,11.5,21.541z M16.808,18H6.192V2.553h10.615V18z"/>
</svg>
