<?xml version="1.0" encoding="utf-8"?>
<!-- Generator: Adobe Illustrator 16.0.0, SVG Export Plug-In . SVG Version: 6.00 Build 0)  -->
<!DOCTYPE svg PUBLIC "-//W3C//DTD SVG 1.1//EN" "http://www.w3.org/Graphics/SVG/1.1/DTD/svg11.dtd">
<svg version="1.1" id="Calque_1" xmlns="http://www.w3.org/2000/svg" xmlns:xlink="http://www.w3.org/1999/xlink" x="0px" y="0px"
	 width="12px" height="15.999px" viewBox="0 0 12 15.999" enable-background="new 0 0 12 15.999" xml:space="preserve">
<g id="Calque_2">
	<g id="Calque_1-2">
		<path d="M5.382,15.678C0.841,9.092,0.001,8.416,0.001,5.999C-0.061,2.748,2.624,0.063,6,0c3.376,0.063,6.061,2.748,5.999,5.999
			c0,2.417-0.84,3.093-5.381,9.679c-0.223,0.328-0.68,0.421-1.021,0.206C5.511,15.83,5.438,15.76,5.382,15.678z M6,8.496
			C7.406,8.472,8.526,7.354,8.501,6c0,0,0,0,0-0.001c0.025-1.354-1.094-2.473-2.5-2.497c0,0-0.001,0-0.001,0
			C4.593,3.526,3.474,4.644,3.499,5.998v0C3.473,7.354,4.593,8.471,6,8.496C6,8.496,6,8.496,6,8.496z"/>
	</g>
</g>
</svg>
