<?xml version="1.0" encoding="utf-8"?>
<!-- Generator: Adobe Illustrator 16.0.0, SVG Export Plug-In . SVG Version: 6.00 Build 0)  -->
<!DOCTYPE svg PUBLIC "-//W3C//DTD SVG 1.1//EN" "http://www.w3.org/Graphics/SVG/1.1/DTD/svg11.dtd">
<svg version="1.1" id="Calque_1" xmlns="http://www.w3.org/2000/svg" xmlns:xlink="http://www.w3.org/1999/xlink" x="0px" y="0px"
	 width="18px" height="19px" viewBox="0 0 18 19" enable-background="new 0 0 18 19" xml:space="preserve">
<path fill="#9356DC" d="M2.341-0.556C2.555-0.839,2.867-1,3.196-1h9.607c0.33,0,0.643,0.161,0.855,0.444l2.936,3.854
	C16.855,3.644,17,4.083,17,4.536v0.322c0,1.662-1.195,3.009-2.672,3.009c-0.824,0-1.604-0.428-2.109-1.161
	c-0.506,0.733-1.283,1.161-2.109,1.161C9.284,7.868,8.506,7.439,8,6.706C7.494,7.439,6.716,7.868,5.891,7.867
	c-0.826,0.001-1.603-0.428-2.11-1.161c-0.906,1.311-2.584,1.547-3.75,0.527C-0.62,6.663-1,5.788-1,4.858V4.536
	c0-0.453,0.144-0.892,0.406-1.237L2.341-0.556L2.341-0.556z M15.875,9.133v7.602V18H0.125v-1.268v-7.6h2.082v3.289h11.587V9.133
	H15.875z"/>
</svg>
