<?xml version="1.0" encoding="utf-8"?>
<!-- Generator: Adobe Illustrator 16.0.0, SVG Export Plug-In . SVG Version: 6.00 Build 0)  -->
<!DOCTYPE svg PUBLIC "-//W3C//DTD SVG 1.1//EN" "http://www.w3.org/Graphics/SVG/1.1/DTD/svg11.dtd">
<svg version="1.1" id="Calque_1" xmlns="http://www.w3.org/2000/svg" xmlns:xlink="http://www.w3.org/1999/xlink" x="0px" y="0px"
	 width="317.752px" height="362.936px" viewBox="138.582 239.416 317.752 362.936"
	 enable-background="new 138.582 239.416 317.752 362.936" xml:space="preserve">
<path fill="#FFFFFF" d="M295.879,344.87c2.197,8.93,2.269,18.285,0.354,27.286c-1.984,8.435-6.024,17.506-11.694,24.735
	c-10.277,11.694-23.104,19.136-38.625,22.68v154.432c0,7.512-2.339,14.74-7.655,20.057c-5.315,5.316-12.544,8.293-20.695,8.293
	c-6.875,0-14.09-2.977-19.412-8.293c-5.315-5.316-8.937-12.545-8.937-20.057V419.57c-14.274-2.834-27.74-10.772-37.421-22.467
	c-5.747-7.229-9.759-15.663-11.725-24.734s-1.833-18.427,0.389-27.428l21.409-96.635c0.603-2.73,2.197-5.141,4.472-6.769
	c2.268-1.628,5.067-2.36,7.845-2.053c2.786,0.303,5.366,1.63,7.236,3.725c1.871,2.094,2.892,4.806,2.877,7.613v102.056h12.311
	l12.112-104.955c0.283-2.321,1.403-4.457,3.175-6.007c1.7-1.549,3.968-2.405,5.669-2.405c2.977,0,5.245,0.856,6.945,2.405
	c1.771,1.55,2.268,3.686,3.189,6.007l12.12,104.955h11.765V250.822c0-2.785,1.63-5.48,2.834-7.571
	c2.48-2.092,5.033-3.433,7.796-3.766c2.765-0.304,4.962,0.437,7.867,2.078c2.268,1.643,3.827,4.069,4.465,6.814L295.879,344.87z
	 M456.335,574.001c0,7.513-2.977,14.741-8.293,20.058c-5.314,5.315-12.544,8.292-20.057,8.292c-7.512,0-14.742-2.977-20.057-8.292
	c-5.316-5.316-8.293-12.545-8.293-20.058v-85.048h-11.906c-5.953,0-11.906-1.204-17.435-3.473
	c-5.457-2.338-10.489-5.669-14.742-9.922c-4.181-4.252-7.513-9.283-10.417-14.813c-1.631-5.527-2.766-11.481-2.766-17.436
	l-0.07-80.652c0.638-26.152,8.504-51.737,23.175-73.367c14.671-21.666,35.437-38.434,59.745-48.151
	c2.836-1.374,7.159-1.885,10.844-1.489c3.686,0.396,7.229,1.688,10.277,3.761c3.048,2.074,5.598,4.865,7.301,8.139
	c1.771,3.267,2.055,6.91,2.692,10.609L456.335,574.001L456.335,574.001z"/>
</svg>
